<svg width="220" height="68" viewBox="0 0 220 68" fill="none" xmlns="http://www.w3.org/2000/svg">
<path d="M13.6875 68H0.234375V0.78125H13.6875V34.3906L38.7188 0.78125H54L32.7656 29.1406L54 68H38.7188L23.9531 40.8125L13.6875 54.5469V68Z" fill="#FF973F"/>
<path d="M90.4688 68H77.0625V46.9531C74.0938 46.2031 71.3594 45 68.8594 43.3438C66.3906 41.6875 64.2656 39.7188 62.4844 37.4375C60.7031 35.125 59.3125 32.5781 58.3125 29.7969C57.3438 26.9844 56.8594 24.0312 56.8594 20.9375V0.78125H70.3125V20.9375C70.3125 22.7812 70.6562 24.5312 71.3438 26.1875C72.0625 27.8125 73.0312 29.2344 74.25 30.4531C75.4688 31.6719 76.8906 32.6406 78.5156 33.3594C80.1719 34.0469 81.9219 34.3906 83.7656 34.3906C85.6094 34.3906 87.3438 34.0469 88.9688 33.3594C90.625 32.6406 92.0625 31.6719 93.2812 30.4531C94.5 29.2344 95.4531 27.8125 96.1406 26.1875C96.8594 24.5312 97.2188 22.7812 97.2188 20.9375V0.78125H110.625V20.9375C110.625 24.0312 110.125 26.9844 109.125 29.7969C108.156 32.5781 106.781 35.125 105 37.4375C103.219 39.7188 101.094 41.6875 98.625 43.3438C96.1562 45 93.4375 46.2031 90.4688 46.9531V68ZM219.938 68H173.859V0.78125H219.938V14.2344H187.312V27.6875H209.391V41.1406H187.312V54.5469H219.938V68Z" fill="#FFF2E7"/>
<path d="M166.828 68H119.766V0.78125H133.219V54.5469H166.828V68Z" fill="#FB933B"/>
</svg>
